<svg xmlns="http://www.w3.org/2000/svg" viewBox="0 0 20.95 22.21"><defs><style>.cls-1{fill:#fff;}</style></defs><title>Femle</title><g id="Layer_2" data-name="Layer 2"><g id="Layer_1-2" data-name="Layer 1"><path id="Path_484" data-name="Path 484" class="cls-1" d="M8.12,17.73c1.5.32,2.07,1.38,2.58,2.54.72,1.6,1.56,2.05,3.37,1.92a1.43,1.43,0,0,0-.1-.42c-1.45-2.19-.7-4.16.54-6.11a2.12,2.12,0,0,1,2.2-1.11c.51,0,1,.08,1.55.08.92,0,1.63-.1,1.42-1.38-.08-.49.5-.41.42-.83a.74.74,0,0,0-.36-.4.39.39,0,0,0,.41-.37.37.37,0,0,0-.07-.23c-.21-.36-.26-.8-.32-.81.62-.07,1.48-.35,1.09-.72-1.2-1.31-2.35-2.9-1.5-4.81A1.9,1.9,0,0,0,20.06,5c.15-.89-.41-3.85-1.95-4.11C17.26.7,16.43.44,15.58.27a9.42,9.42,0,0,0-5.51.31,8,8,0,0,0-3,1.84C6,4,4.8,1.51,4.29,1.34A3.38,3.38,0,0,0,1,1.76a3.5,3.5,0,0,0-.8,3.76c.15.37,0,.86.18,1.2a33.65,33.65,0,0,0,2,3.55c.33.48.94.49,1.08-.32A19.46,19.46,0,0,1,4,7.43a2.79,2.79,0,0,1,.92-1.22c.27-.22.43,0,.45.14A24.36,24.36,0,0,0,6.64,9.52a16.19,16.19,0,0,0,2.42,3.21c1.2,1.21,1.42,2.1.41,3.49A17.53,17.53,0,0,1,8.12,17.73Z"/></g></g></svg>