<svg xmlns="http://www.w3.org/2000/svg" viewBox="0 0 439.99 138.42"><defs><style>.cls-1{fill:#e8ae42;}.cls-2{fill:#7bc2d1;}.cls-3{fill:#a53b2c;}.cls-4{fill:#33397d;}.cls-5{fill:#d2e9ee;}.cls-6{fill:#272425;}</style></defs><title>Logo-BH-Eng</title><g id="Layer_2" data-name="Layer 2"><g id="Layer_3" data-name="Layer 3"><g id="Layer_1-2" data-name="Layer 1-2"><path class="cls-1" d="M54.18,127.79l6.13,10.63,6-10.55a12.32,12.32,0,0,0-6.05-1.81,12,12,0,0,0-6.06,1.63Z"/><path class="cls-2" d="M12.19,34.14H0L6.06,44.62a12.29,12.29,0,0,0,4.45-4.38A12.59,12.59,0,0,0,12.19,34.14Z"/><polygon class="cls-3" points="22.64 94.92 15.77 96.77 14.36 104.66 24.03 104.68 22.64 94.92 22.64 94.92"/><polygon class="cls-3" points="9.12 49.88 19.53 50.85 18.14 65.48 9.12 49.88 9.12 49.88"/><polygon class="cls-1" points="5.68 94.94 0.1 104.68 11.27 104.66 12.63 97.07 5.68 94.94 5.68 94.94"/><path class="cls-3" d="M52.33,13.1s11.94-2.47,13.35-2.87c0,0-2-3.65-5.86-10.23L52.4,13.1Z"/><polygon class="cls-4" points="22 72.67 20.14 69.66 14.04 80.33 17.97 82.53 22 72.67 22 72.67"/><polygon class="cls-4" points="101.27 53.89 104.68 43.13 113.46 45.14 107.67 55.24 101.27 53.89 101.27 53.89"/><polygon class="cls-3" points="48.62 118.1 58.58 116.45 53.27 107.75 45.9 113.41 48.62 118.1 48.62 118.1"/><path class="cls-1" d="M44.74,111.36l8.31-6.48H41Z"/><polygon class="cls-3" points="94.62 59.2 99.99 68.35 106.19 57.54 100.21 56.21 94.62 59.2 94.62 59.2"/><polygon class="cls-2" points="61.65 115.39 63.35 122.73 68.03 124.65 72.55 116.69 61.65 115.39 61.65 115.39"/><polygon class="cls-3" points="114.17 93.93 120.43 104.73 110.79 104.73 114.17 93.93 114.17 93.93"/><polygon class="cls-2" points="59.6 14.63 50.4 16.61 44.94 26.28 54.48 26.08 59.6 14.63 59.6 14.63"/><path class="cls-2" d="M105.28,92.94l7.41-1.26-4.42-7.42L96.5,83.87,105.2,93Z"/><polygon class="cls-1" points="69.98 29.49 74.7 25.48 67.75 13.4 63.53 14.26 60.53 20.71 69.98 29.49 69.98 29.49"/><polygon class="cls-3" points="94.65 42.64 101.64 42.74 104.39 34.21 97.27 34.21 94.65 42.64 94.65 42.64"/><polygon class="cls-5" points="94.72 97.79 95.46 86.51 104.24 95.81 98.7 98.8 94.72 97.79 94.72 97.79"/><polygon class="cls-2" points="46.27 66.47 39.72 62.04 33.3 72.35 41.75 76.97 46.27 66.47 46.27 66.47"/><path class="cls-2" d="M46.3,96.8l7.93-9.2-4.79-2.92s-5.91,3.39-8.78,5.25l5.56,6.87Z"/><path class="cls-1" d="M37.28,89S46,83.7,47.16,83c0,0-7.24-4.18-8.43-4.77Z"/><polygon class="cls-3" points="28.75 54.75 33.52 67.48 26.15 73.86 21.85 66.59 28.75 54.75 28.75 54.75"/><polygon class="cls-5" points="46.3 51.46 52.45 57.57 58.31 55.72 55.89 44.84 46.3 51.46 46.3 51.46"/><polygon class="cls-2" points="67.9 56.19 64.42 36.83 57.3 38.46 60.31 51.04 67.9 56.19 67.9 56.19"/><polygon class="cls-5" points="82.88 53.14 69.9 52.97 73.98 64.05 82.88 53.14 82.88 53.14"/><polygon class="cls-4" points="92.08 97.83 84.96 95.31 91.53 83.72 92.08 97.83 92.08 97.83"/><polygon class="cls-1" points="92.35 60.68 98.25 70.94 89.01 69.66 92.35 60.68 92.35 60.68"/><polygon class="cls-5" points="94.18 73.64 78.04 69.68 82.06 77.86 90.15 80.75 94.18 73.64 94.18 73.64"/><polygon class="cls-4" points="35.22 64.27 42.84 51.76 37.62 46.55 31.57 54.26 35.22 64.27 35.22 64.27"/><polygon class="cls-2" points="30.16 34.11 33.57 34.11 38.26 40.96 30.6 50.9 30.16 34.11 30.16 34.11"/><polygon class="cls-2" points="37.87 104.68 26.47 104.68 25.26 96.5 37.87 104.68 37.87 104.68"/><polygon class="cls-3" points="38.19 37.94 41.67 40.86 50.9 29.09 43.26 29.17 38.19 37.94 38.19 37.94"/><polygon class="cls-3" points="28.6 83.77 25.73 93.41 31.39 97.04 35.47 87.9 28.6 83.77 28.6 83.77"/><path class="cls-5" d="M23.56,91.46S26.7,80.93,26.7,80.85l-3.12-5.43L16.29,93.48Z"/><path class="cls-2" d="M52.38,124.61l7.86-1.81c-.45-1.88-.89-3.81-.89-3.81L50,120.53l2.47,4.08Z"/><path class="cls-5" d="M66.74,102.31,59.45,102A14.33,14.33,0,0,1,56.26,108l5.17,5.26A14,14,0,0,0,66.74,102.31Z"/><path class="cls-1" d="M102.51,104.73h5.39l2.29-9.49-9.54,6Z"/><path class="cls-3" d="M107,81.57l-4.77-8.23L96.8,75S93.93,80,93.44,81L107,81.6Z"/><polygon class="cls-2" points="99.42 104.73 97.56 101.25 86.32 98.38 81.84 104.68 99.42 104.73 99.42 104.73"/><polygon class="cls-3" points="83.15 98.48 74.63 91.21 68.3 100.95 79.25 105.1 83.15 98.48 83.15 98.48"/><path class="cls-1" d="M60.73,99.64l7.15-3.46,3.51-6.48s-12.81-2.17-12.81-2.15Z"/><path class="cls-3" d="M54.87,90.64l-7.29,8.51,7.42,4.2a9,9,0,0,0,2.64-6.95v-.22a8.54,8.54,0,0,0-2.77-5.61Z"/><path class="cls-2" d="M13.55,94.2l3.75-8.9-4.52-2.47s-5.46,9.44-5.44,9.49l6.3,1.91Z"/><path class="cls-4" d="M66.49,113.38l7.42,1,4-7.17-7.81-2.91a14.39,14.39,0,0,1-3.66,9.09Z"/><polygon class="cls-4" points="38.41 91.21 47.38 102.21 39.3 102.19 33.67 98.5 38.41 91.21 38.41 91.21"/><path class="cls-4" d="M29.93,81.05a7.64,7.64,0,0,0,5.37,3.59l1.09-7.59-4.95-2.67-1.73-.94a7.56,7.56,0,0,0,0,7.61Z"/><polygon class="cls-5" points="94.5 54.75 97.89 55.44 101.15 45.68 89.26 45.53 94.5 54.75 94.5 54.75"/><polygon class="cls-4" points="66.67 68.05 71.53 65.5 70.1 61.15 62.36 55.96 55.39 60.31 66.67 68.05 66.67 68.05"/><polygon class="cls-2" points="49.29 67.85 57.54 73.34 64.49 69.43 56.23 64.07 49.29 67.85 49.29 67.85"/><path class="cls-1" d="M62.66,73.64A12.11,12.11,0,0,0,77.49,77L73,67.9,62.74,73.64Z"/><polygon class="cls-5" points="64.39 33.94 55.27 35.99 52.03 33.07 59.27 23.51 67.46 31.29 64.39 33.94 64.39 33.94"/><path class="cls-4" d="M75.19,66.29l8-8.28a10.07,10.07,0,0,1,2.77,10.9Z"/><path class="cls-2" d="M87.21,59.08a11.41,11.41,0,0,1,1.13,2.72l4.25-5.34L87.5,47.71l-2.67,8.45a12,12,0,0,1,2.48,2.92Z"/><path class="cls-2" d="M74.15,42.69,67.65,41l1.64,9.14h2.22A12,12,0,0,1,74.15,42.69Z"/><polygon class="cls-2" points="119.69 34.23 114.97 42.44 105.75 40.29 107.6 34.23 119.69 34.23 119.69 34.23"/><polygon class="cls-3" points="53.71 62.22 48.84 64.94 41.35 59.94 45.01 53.79 53.71 62.22 53.71 62.22"/><polygon class="cls-1" points="49.56 34.8 40.96 46.08 44.69 49.49 55.15 42.17 54.68 39.67 49.56 34.8 49.56 34.8"/><polygon class="cls-2" points="89.06 83.08 85.28 89.7 79.07 79.54 89.06 83.08 89.06 83.08"/><path class="cls-5" d="M82,93.93a15.13,15.13,0,0,0,.27-2.32,11.8,11.8,0,0,0-5.17-9.89L76,89Z"/><polyline class="cls-5" points="47.9 70 44.27 78.38 55.2 84.64 62.19 78.46"/><polygon class="cls-4" points="28.11 40.24 27.86 34.11 15.75 34.11 23.23 44.27 28.11 40.24 28.11 40.24"/><polygon class="cls-1" points="7.98 46.99 18.71 47.9 20.91 46.1 15.42 37.99 7.98 46.99 7.98 46.99"/><polygon class="cls-5" points="22.07 61.52 28.18 50.99 28.01 43.85 22.42 48.52 21.36 60.46 22.07 61.52 22.07 61.52"/><polygon class="cls-3" points="73.61 87.43 74.85 80.66 64.59 79.52 59.05 85.03 73.61 87.43 73.61 87.43"/><polygon class="cls-1" points="82.39 34.19 86.71 42.54 92.13 42.61 94.77 34.21 82.39 34.19 82.39 34.19"/><path class="cls-3" d="M73.93,50.55,84,50.67,85.8,45l-2.75-4.5a10.07,10.07,0,0,0-9.12,10Z"/><path class="cls-4" d="M67.26,35.69l.47,2.82,8.75,2.3a8.8,8.8,0,0,1,1.51-1,11.65,11.65,0,0,1,4-1.43L76.31,28.23s-4.4,3.56-9,7.41Z"/><path class="cls-6" d="M107,44v1.17"/><path class="cls-6" d="M142.28,22.44h3.81L152.69,40l6.62-17.58h3.83V43.36H160.5V26.05h0L154,43.36H151.5L145,26.05h0V43.36h-2.67Z"/><path class="cls-6" d="M185.78,35.79c0,5.37-3,8-8.25,8s-8.58-2.48-8.58-8V22.44h2.79V35.79a5.17,5.17,0,0,0,4.52,5.74,5.4,5.4,0,0,0,1.27,0A5,5,0,0,0,183,37.12a5.39,5.39,0,0,0,0-1.33V22.44h2.79Z"/><path class="cls-6" d="M203.65,28.57a4.52,4.52,0,0,0-4.71-4.32,3.91,3.91,0,0,0-.48.05c-2.47,0-4.69.84-4.69,3.56,0,5.19,13.39,1.51,13.39,9.88,0,4.48-4.37,6.21-8.18,6.21-4.67,0-8.62-2.27-8.62-7.42H193c0,3.51,2.94,4.95,6.1,4.95,2.47,0,5.29-.79,5.29-3.81,0-5.78-13.37-2-13.37-9.66,0-4.21,3.73-6.11,7.59-6.11,4.27,0,7.56,2,7.68,6.62Z"/><path class="cls-6" d="M211.86,22.44H226.3v2.28H214.63v6.65h10.88v2.35H214.63V41H226.4v2.33H211.86Z"/><path class="cls-6" d="M247.78,35.79c0,5.37-3,8-8.23,8s-8.58-2.48-8.58-8V22.44h2.77V35.79a5.17,5.17,0,0,0,4.51,5.75,5.65,5.65,0,0,0,1.3,0A4.94,4.94,0,0,0,245,37.21a4.83,4.83,0,0,0,0-1.42V22.44h2.77Z"/><path class="cls-6" d="M253.61,22.44h3.81L264,40l6.62-17.58h3.73V43.36H271.9V26.05h0l-6.55,17.31h-2.47l-6.53-17.31h0V43.36h-2.74Z"/><path class="cls-6" d="M298.7,22c6.67,0,10,5.24,10,11s-3.36,10.93-10,10.93-9.89-5.17-9.89-10.93S292.05,22,298.7,22Zm0,19.58c5.11,0,7.24-4.4,7.24-8.63s-2.13-8.6-7.24-8.6-7.22,4.37-7.22,8.6S293.6,41.53,298.7,41.53Z"/><path class="cls-6" d="M313.45,22.44H327.2v2.28h-11v6.65h9.62v2.35h-9.62v9.56h-2.77Z"/><path class="cls-6" d="M345.81,24.72h-7V22.44h16.74v2.28h-7V43.28h-2.72Z"/><path class="cls-6" d="M359.18,22.44H362v9h11v-9h2.72V43.36H373V33.79H362v9.57h-2.8Z"/><path class="cls-6" d="M381.68,22.44h14.43v2.28H384.44v6.65h10.88v2.35H384.44V41h11.77v2.33H381.68Z"/><path class="cls-6" d="M152.86,73.31a5.39,5.39,0,0,1-5,5.74,5.61,5.61,0,0,1-1.16,0,5.44,5.44,0,0,1-6.08-4.71,5.08,5.08,0,0,1,0-1.35V71.68h2.77v.89c0,2.47.64,4.16,3.38,4.16s3.34-1.46,3.34-3.79V57.59h2.77Z"/><path class="cls-6" d="M158.77,57.59H173.2v2.35H161.53v6.65h10.88v2.35H161.53v7.24H173.3v2.35H158.77Z"/><path class="cls-6" d="M196.88,78.53H194L189.19,61h0l-4.94,17.57h-2.84L176,57.59h2.85l4,17.43h0l4.69-17.3h3l4.64,17.42h0l4.26-17.3h2.76Z"/><path class="cls-6" d="M206.55,57.59h2.79V78.53h-2.79Z"/><path class="cls-6" d="M227.41,63.72a4.55,4.55,0,0,0-4.77-4.31,3,3,0,0,0-.42,0c-2.47,0-4.67.84-4.67,3.58,0,5.19,13.39,1.48,13.39,9.77,0,4.47-4.37,6.2-8.18,6.2-4.7,0-8.65-2.3-8.65-7.42h2.67c0,3.54,2.92,5,6.08,5,2.47,0,5.31-.79,5.31-3.81,0-5.76-13.39-1.93-13.39-9.64,0-4.23,3.75-6.13,7.59-6.13,4.27,0,7.56,2,7.71,6.63Z"/><path class="cls-6" d="M235.64,57.59h2.79v9h11v-9h2.67V78.53h-2.77V68.94H238.43v9.59h-2.79Z"/><path class="cls-6" d="M267.6,57.59h9.25a5.69,5.69,0,0,1,6.38,4.89,6.47,6.47,0,0,1,0,1.32,5.69,5.69,0,0,1-5.12,6.2,6.08,6.08,0,0,1-1.28,0h-6.41v8.55h-2.77Zm2.77,10h5.46c3.17,0,4.57-1.36,4.57-3.83s-1.4-3.86-4.57-3.86h-5.46Z"/><path class="cls-6" d="M287.89,57.59h14.46v2.35H290.69v6.65h10.87v2.35H290.69v7.24h11.74v2.35H287.89Z"/><path class="cls-6" d="M316,57.1c6.65,0,9.89,5.24,9.89,11S322.5,79,316,79s-10-5.19-10-10.93S309.33,57.1,316,57.1Zm0,19.58c5.1,0,7.25-4.4,7.25-8.61s-2.15-8.62-7.25-8.62-7.24,4.4-7.24,8.62,2.13,8.56,7.24,8.56Z"/><path class="cls-6" d="M330.71,57.59h9.17a5.72,5.72,0,0,1,6.4,4.92,5.57,5.57,0,0,1,0,1.29,5.67,5.67,0,0,1-5.11,6.2,5.22,5.22,0,0,1-1.31,0H333.5v8.55h-2.79Zm2.79,10h5.44c3.16,0,4.57-1.36,4.57-3.83s-1.41-3.86-4.57-3.86H333.5Z"/><path class="cls-6" d="M351,57.59h2.77V76.18h11.07v2.35H351Z"/><path class="cls-6" d="M368.62,57.59h14.51v2.35H371.47v6.65h10.87v2.35H371.47v7.24h11.66v2.35H368.6Z"/><path class="cls-6" d="M147.91,92.77H151l8.18,20.93H156.1l-2.3-6.3H145l-2.47,6.3h-2.72Zm-2.07,12.36h7.09l-3.48-9.89h0Z"/><path class="cls-6" d="M164.6,95.12h-7V92.77h16.74v2.35h-7V113.7H164.6Z"/><path class="cls-6" d="M187.44,92.77H195a12.4,12.4,0,0,1,5.53.76A5,5,0,0,1,203,97.91a4.73,4.73,0,0,1-3.12,4.67h0a4.77,4.77,0,0,1,4,4.94,6,6,0,0,1-5.77,6.19,3.75,3.75,0,0,1-.58,0H187.44Zm2.89,9h5.56c3.17,0,4.45-1.12,4.45-3.34,0-2.94-2-3.31-4.45-3.31h-5.56Zm0,9.59h7a3.51,3.51,0,0,0,3.93-3.76c0-2.72-2.2-3.49-4.55-3.49h-6.35Z"/><path class="cls-6" d="M208.85,92.77h14.43v2.35H211.61v6.65h10.85v2.34H211.59v7.25h11.76v2.47h-14.5Z"/><path class="cls-6" d="M228.17,92.77H231V113.7h-2.8Z"/><path class="cls-6" d="M241.72,95.12h-6.9V92.77h16.71v2.35h-7V113.7h-2.77Z"/><path class="cls-6" d="M264.49,92.77h2.79v9h11v-9h2.77V113.7H278.3v-9.59h-11v9.59h-2.79Z"/><path class="cls-6" d="M292.74,92.77h3.06L304,113.7H301l-2.28-6.3h-8.85l-2.47,6.3h-2.84Zm-2.1,12.36h7.09l-3.48-9.89h0Z"/><path class="cls-6" d="M309.4,95.12h-7V92.77h16.73v2.35h-7V113.7H309.4Z"/><path class="cls-6" d="M322.8,92.77h13.74v2.35h-11v6.65h9.59v2.34h-9.59v9.59H322.8Z"/><path class="cls-6" d="M357.65,106.14c0,5.36-3,8-8.26,8s-8.57-2.47-8.57-8V92.77h2.76v13.37a5.16,5.16,0,0,0,4.5,5.72,5.06,5.06,0,0,0,1.29,0,4.94,4.94,0,0,0,5.49-4.32,4.62,4.62,0,0,0,0-1.39V92.77h2.79Z"/><path class="cls-6" d="M368.15,95.12h-7V92.77h16.74v2.35h-7V113.7h-2.8Z"/><path class="cls-6" d="M393.64,98.87a4.53,4.53,0,0,0-4.72-4.32l-.45,0c-2.47,0-4.69.84-4.69,3.56,0,5.19,13.39,1.5,13.39,9.88,0,4.5-4.37,6.23-8.18,6.23-4.69,0-8.65-2.3-8.65-7.41H383c0,3.51,2.91,4.94,6.1,4.94,2.47,0,5.29-.79,5.29-3.81,0-5.78-13.4-1.95-13.4-9.64,0-4.22,3.76-6.13,7.59-6.13,4.28,0,7.57,2,7.71,6.63Z"/><path class="cls-6" d="M410.69,92.27c6.68,0,10,5.24,10,11s-3.36,11-10,11-10-5.19-10-11S404.05,92.27,410.69,92.27Zm0,19.58c5.12,0,7.25-4.4,7.25-8.63s-2.13-8.6-7.25-8.6-7.21,4.4-7.21,8.6S405.6,111.85,410.69,111.85Z"/><path class="cls-6" d="M430.1,95.12h-7V92.77H440v2.35h-7V113.7H430.1Z"/></g></g></g></svg>