<svg xmlns="http://www.w3.org/2000/svg" viewBox="0 0 15 21.89"><defs><style>.cls-1{fill:#fff;}</style></defs><title>Male</title><g id="Layer_2" data-name="Layer 2"><g id="Layer_1-2" data-name="Layer 1"><g id="Men_Silhouette" data-name="Men Silhouette"><g id="Men_Silhouette-2" data-name="Men Silhouette-2"><path id="Path_5690" data-name="Path 5690" class="cls-1" d="M7.67,21.89A12.22,12.22,0,0,0,.26,16.3a29.45,29.45,0,0,0,1.68-3.6,2.64,2.64,0,0,0-.45-1.83A9.29,9.29,0,0,1,.56,2.64a3.78,3.78,0,0,1,3-2.23,15.78,15.78,0,0,1,7.17,0,10.51,10.51,0,0,1,2.29,1,.75.75,0,0,1,.19.54c-.73.48-.3,1.06-.18,1.62a3,3,0,0,1,.26,1.2c-.35,1.46.37,2.52,1.12,3.63.88,1.28.93,1.73-.57,2-.17,0-.11.45-.14.63s.1.36.22.52-.19.41-.28.35c.12.11.31.12.19.54s-.45.12-.33.76c.16.8.2,1.26,0,1.65a1.81,1.81,0,0,1-1.15.53c-1,0-2.24-.39-3.26-.43a1.07,1.07,0,0,0-1.1,1,1.14,1.14,0,0,0,.07.41C8.92,19.15,8.43,21.89,7.67,21.89Z"/></g></g></g></g></svg>