<svg xmlns="http://www.w3.org/2000/svg" viewBox="0 0 11 19.25"><defs><style>.cls-1{fill:#fff;}</style></defs><title>Question</title><g id="Layer_2" data-name="Layer 2"><g id="Layer_1-2" data-name="Layer 1"><path id="Path_6862" data-name="Path 6862" class="cls-1" d="M4.14,13.89V12.75a3.48,3.48,0,0,1,.9-2.5L7,7.68c1-1.33,1.4-2,1.4-2.92a2.59,2.59,0,0,0-2.6-2.6,1.41,1.41,0,0,0-.29,0,3,3,0,0,0-3.1,2.65.27.27,0,0,1-.29.23h0L.24,4.73A.25.25,0,0,1,0,4.48a.09.09,0,0,1,0-.05C.46,1.75,2.51,0,5.61,0S11,2,11,4.73A5.66,5.66,0,0,1,9.48,8.35l-2,2.57A2.72,2.72,0,0,0,6.71,13v.89a.28.28,0,0,1-.27.28h-2a.27.27,0,0,1-.3-.24ZM4,16.57a.26.26,0,0,1,.26-.28h2.3a.29.29,0,0,1,.3.25V19a.28.28,0,0,1-.27.28H4.3A.26.26,0,0,1,4,19s0,0,0,0Z"/></g></g></svg>